<?xml version="1.0" encoding="UTF-8"?>
<!-- Generator: Adobe Illustrator 28.1.0, SVG Export Plug-In . SVG Version: 6.00 Build 0)  -->
<svg xmlns="http://www.w3.org/2000/svg" xmlns:xlink="http://www.w3.org/1999/xlink" version="1.1" id="Capa_1" x="0px" y="0px" viewBox="0 0 453.6 235" style="enable-background:new 0 0 453.6 235;" xml:space="preserve">
<style type="text/css">
	.st0{fill:#FFFFFF;}
	.st1{fill:url(#SVGID_1_);}
	.st2{fill:#7CB829;}
	.st3{fill:#1E4551;}
</style>
<path class="st0" d="M0,0h450c0,0-27.2,233-347.3,233h-82C9.2,233,0,223.8,0,212.4V0z"></path>
<g>
	<g>
		<linearGradient id="SVGID_1_" gradientUnits="userSpaceOnUse" x1="57.6756" y1="104.8963" x2="206.1637" y2="87.4681">
			<stop offset="6.648003e-02" style="stop-color:#7CB829"></stop>
			<stop offset="0.3849" style="stop-color:#E68A01"></stop>
			<stop offset="0.7961" style="stop-color:#274F5D"></stop>
		</linearGradient>
		<path class="st1" d="M252.9,94.6c-0.2-1-0.8-2.2-2.1-2.8l-4-1.1c-1.4-0.4-2.9-0.4-4.2,0.2c-0.7,0.3-1.4,0.5-2.3,0.3    c-3.5-0.6-7.7-2.6-11.5-4.9c6.2,2.5,11.8,1.4,14.1,0.7c0.5-0.1,1-0.4,1.3-0.8c0.5-0.6,1.3-1.3,2.3-1.4c0.9-0.1,2.4,0,3.5,0.1    c0.5,0,1-0.1,1.3-0.5c0.4-0.3,0.6-0.8,0.5-1.4c-0.1-0.9-0.1-1.4-0.7-1.8c-1.1-1-4.3-1.8-6.5-1.3c-0.1,0-0.3,0.1-0.5,0.2    c-0.7,0.3-2.1,0.8-3.3,0.6c-2.3-0.3-5.2-1.2-13-4.9c-8.9-4.2-15.6-12.4-15.3-13.3c1.1-0.9,4.5-1,6.7-1c2,0,2.5-0.1,2.5-0.4    c0-0.1,0-0.1,0-0.1c1.7-1,2.5-2,2.6-3.3c0.2-0.3,0.3-0.8,0.2-1.4c-0.1-0.4-0.2-0.8-0.3-1.4c0-0.2-0.1-0.4-0.3-0.6    c-0.4-0.8-1.3-2.6-2-7.1c0.7-4.9-1.2-10.1-4.8-13.5l0,0.7l-0.1,1.7c-3.5-3.2-8.2-4.6-12.9-4.8l-0.8,0c0.2,0.1,0.5,0.4,0.8,0.7    c-3.4-0.6-6.9,1-9.7,2.7c0.2,0,0.9,0.1,1.5,0.2c-1.3,0.4-2.5,1-3.7,1.8c-1.4,1-2.3,2.5-3.3,4l-0.3,0.4l0.5-0.2l1.3-0.4    c-1.4,1.5-2.6,3.2-3.6,5c-0.9,2.1-0.8,4.4-0.6,6.7c-0.1,0.1-1,0.5-1,0.5l0,0c-0.2,0.2-0.5,0.4-0.6,0.7c-0.9-0.1-1.7-0.2-2.6-0.3    c-9.3-1.1-17-1.7-24.2-1.7c-2.9,0-5.6,0.1-8.4,0.3c-4-0.1-8.3,0.2-13.2,1.1c-2.3,0-4.4,0.3-6.5,0.7c-31.1,6.2-69,36.4-64.2,71.2    c0.9,6.5,3.3,12.7,6.4,18.1c3.2,5.4,7.1,10.1,11.4,14.3c1.6,1.6,4.1,1.7,5.9,0.3c2-1.6,2.3-4.4,0.7-6.4    c-9.7-11.8-16-26.8-10.2-41.7c5.6-14.3,18.1-24.8,31.4-32.4c4.6-2.6,9.4-4.8,14.2-6.5c0,0,0.1,0,0.2,0c0,0.1,0,0.3,0,0.4    c0,0.7,0,1.5,0,2.2c0,2.9,0.2,5.8,0.6,8.7c0.2,1.7,0.5,3.3,0.9,4.9v0.8c-3.3,5.4-7.7,9.5-13.3,12.4c-0.3,0.2-0.6,0.4-1,0.6    c-0.7,0.4-1.4,0.9-2.3,1.2c-1.4,0.5-2.8,0.9-3.5,1.9l-0.2,0.3l0.1,0.3c0.7,3.8,0.6,10.4,0.5,13.9c0,1,0,1.8,0,2.1    c-0.2,1.8-0.9,3.5-2.2,5.5l0,0l-0.3,8.3l0,0.8l1.1-0.5c0.2-0.1,0.5-0.2,0.7-0.3c2-1.1,3.4-3.1,4.2-4.7c3.6-3.7,4.1-15.8,4.1-17.5    c13.5-3.9,22.4-12,26.1-16l-0.3,0.5l1.3-1.4c0.2-0.2,0.4-0.4,0.6-0.7c0.4-0.4,0.7-0.8,1-1.3c0.9-0.7,1.6-1.8,1.9-2.7    c0.1-0.1,0.1-0.2,0.2-0.3l0.1,1.3c1.1-2.1,1.9-4.5,2.5-6.8c0.8-2.3,1.3-4.8,1.6-7.5l0-1.1c0.3,0.2,0.6,0.4,0.9,0.7    c0.8,0.6,1.6,1.2,1.9,1.4c5.8,3.6,18.7,7.8,36.4,8.2l-0.8,1.3c5.5,0.1,8.2-0.8,9.8-1.5c0.1,0,0.3,0,0.4,0l-1,1.7    c3.8-0.5,7.8-1.5,9.6-2.9h0c0,0,0.1,0,0.1,0c0.4,0.4,1.9,1.9,2.6,2.4c7.9,6.1,16.3,11.5,32.3,10.5c0.2,0,0.5,0,0.8-0.1    c0.3-0.1,0.5-0.2,0.8-0.3c0.3-0.2,0.7-0.4,1-0.6c0.7-0.5,1.5-1,2.1-0.9c1.6,0.1,3.3,0.3,5.1,0.7c0.4,0.1,0.8-0.1,1-0.3    C252.9,95.3,253,95,252.9,94.6z M114.5,111.2l-0.1,0l0,0.2c0,0.1-0.3,9.4-2.4,14.7c0,0,0,0,0,0c0.1-0.2,0.1-0.4,0.2-0.7    c0,0,0-0.1,0-0.1c0-0.2,0.1-0.4,0.1-0.5l0.9-14.4c7.9-2.1,10.5-3.6,13.7-5.4c1.6-0.9,3.3-1.9,5.9-3.1c0.5-0.3,1-0.6,1.4-1    c0.2-0.1,0.3-0.2,0.5-0.3c0.4-0.3,0.8-0.5,1.2-0.8c0.1-0.1,0.2-0.1,0.3-0.2C131.4,103.6,124.1,108.5,114.5,111.2z M141.2,94.6    c-0.1,0.1-0.3,0.3-0.4,0.4c-0.2,0.2-0.5,0.4-0.7,0.7c-0.2,0.1-0.3,0.3-0.5,0.4c-0.2,0.2-0.5,0.4-0.7,0.6c-0.2,0.1-0.3,0.3-0.5,0.4    c-0.2,0.2-0.4,0.4-0.7,0.5c-0.2,0.1-0.3,0.3-0.5,0.4c-0.2,0.2-0.4,0.3-0.7,0.5c-0.2,0.1-0.4,0.3-0.5,0.4c-0.2,0.2-0.4,0.3-0.6,0.4    c-0.2,0.1-0.4,0.3-0.6,0.4c-0.2,0.1-0.4,0.2-0.5,0.4c-0.6,0.4-1.2,0.8-1.8,1.2c-2.6,1.2-4.4,2.2-5.9,3.1    c-3.2,1.8-5.7,3.3-13.7,5.4l-0.1,0l-0.9,14.7c0,0.1,0,0.2-0.1,0.3c0,0.2-0.1,0.5-0.2,0.7c0,0.1-0.1,0.2-0.1,0.3    c-0.2,0.6-0.5,1.3-0.9,2.1c-0.1,0.2-0.2,0.4-0.3,0.6l0,0c-0.9,1.7-2.4,3.8-4.7,4.8l-0.1,0.1l-0.4,0.1l0-0.1l0.3-8.2    c1.4-2,2.1-3.8,2.3-5.7c0-0.4,0-1.1,0-2.1c0.1-3.5,0.2-10.1-0.5-14l0-0.2l0.1-0.1c0.7-0.9,2-1.3,3.3-1.7c0.9-0.3,1.7-0.8,2.4-1.2    c0.3-0.2,0.6-0.4,0.9-0.5c5.7-3,10.1-7,13.4-12.5c0.6,0.5,2.3,2,3.9,2.6l-2.1,0.5l0.7,0.3c1.9,0.7,3.6,1,5.2,0.9l0.6,2.3l0.1,0.2    l0.2,0c1.3-0.2,2.2-0.3,3.2-0.6c0.8-0.3,1.5-0.6,2.3-1.2l-0.5,1.7l0.2,0c0.2,0,0.5,0,0.8-0.1C141.7,94.1,141.5,94.3,141.2,94.6z     M203.7,63.4c-0.1,0.1-0.2,0.2-0.3,0.3c-5.3-1-8-5.1-8.6-7.2c-0.1-0.5-1,5.6-1,5.6c-2.8-0.3-4.7-5.8-4.2-6.7    c-0.6,0.5-1,1.7-1.5,2.8c0,0,0-0.1-0.1-0.1c-0.5-0.9-0.8-1.8-1-2.7c0-0.1,0-0.1-0.1-0.2c-0.3-0.3-1.1-0.9-1.3-1.3    c0-0.1,0-0.2,0.1-0.2c-0.3,0-0.7-0.1-1-0.1c0-0.1,0.1-0.1,0.1-0.2c0.1-0.2,0.4-0.4,0.5-0.5l1.1-0.5l0.1,0    c-0.1-1.1-0.2-2.3-0.1-3.5c0-3.5,2.5-6.2,4.7-8.7l0.5-0.5c-0.4,0.1-1.4,0.5-2.1,0.7c0.9-1.2,1.7-2.5,2.9-3.4    c1.7-1.2,3.8-1.8,5.8-2.3c-0.6-0.1-1.6-0.2-2.5-0.3c2.8-1.5,6.1-2.7,9.2-1.7l1.3,0.4c-0.3-0.3-0.9-0.8-1.4-1.2    c4.7,0.3,9.4,2,12.7,5.6c0-0.3,0.1-1.5,0.1-2.3c2.7,3.2,3.9,7.4,3.6,11.5c0,0.2,0,0.3,0,0.5c0,0.2-0.1,0.4-0.1,0.6    c-0.7,0.3-1.9,0.5-3.6,0.2h0c-0.3-0.1-0.6-0.2-1-0.3c-0.3-0.1-0.6-0.2-0.9-0.4c-0.2-2.1-2.2-2.8-6.1-1.6c-0.1,0-0.2,0-0.3,0.1    c-2.3,0.8-4.3,2.4-5.7,4.4c-0.1,0.2-0.3,0.4-0.4,0.6c-0.2,0.3-0.3,0.5-0.4,0.8c-0.7,1.5-1.2,3.1-1.2,4.7    C201.7,60,203.1,62.4,203.7,63.4z M252.3,95.3c-0.1,0.1-0.3,0.2-0.5,0.2c0,0-0.1,0-0.1,0c-1.8-0.3-3.6-0.5-5.2-0.7    c-0.8-0.1-1.6,0.5-2.4,1c-0.3,0.2-0.7,0.4-1,0.6c-0.2,0.1-0.4,0.2-0.7,0.3c-0.2,0.1-0.5,0.1-0.7,0.1c-15.8,1-24.2-4.3-32-10.4    c-0.8-0.6-2.6-2.5-2.6-2.5l-0.1-0.1l-0.1,0c-0.6-0.7-2.4-2.9-2.7-7c0,0,1.7,2.5,1.7,2.5s-1-5.1-0.8-7.1c0,0,0,0,0-0.1    c0.4-3.8,2.5-6.1,4.6-8.1c0.7-0.7,1.5-1.2,2.3-1.6c0,0,0,0.1,0,0.1c0.2,1.7,6.8,9.5,15.5,13.7c7.9,3.7,10.8,4.6,13.2,4.9    c1.3,0.2,2.8-0.3,3.5-0.6c0.2-0.1,0.3-0.1,0.4-0.1c2.1-0.4,5,0.3,6.1,1.2c0.4,0.3,0.4,0.6,0.5,1.5c0,0.4-0.1,0.7-0.4,1    c-0.3,0.3-0.6,0.4-0.9,0.3c-1.1-0.1-2.6-0.2-3.6-0.1c-1.1,0.1-2,0.9-2.6,1.5c-0.3,0.3-0.7,0.6-1,0.7c-2.1,0.6-9.3,2.1-16.5-2    c-4.2-2.4-8.6-7.3-9.5-8.3l-0.4,0.3c0.5,0.7,3.7,4,4.2,4.4c3.8,3.6,13,9.4,19.5,10.7c0.9,0.2,1.8-0.1,2.5-0.4    c1.2-0.5,2.5-0.5,3.9-0.1l4,1.1c1.1,0.5,1.6,1.6,1.8,2.4C252.5,94.9,252.5,95.1,252.3,95.3z"></path>
		<path class="st0" d="M136.1,99.6c-4.7,4-12,8.9-21.6,11.7l-0.1,0l0,0.2c0,0.1-0.3,9.4-2.4,14.7c0,0,0,0,0,0    c0.1-0.2,0.1-0.4,0.2-0.7c0,0,0-0.1,0-0.1c0-0.2,0.1-0.4,0.1-0.5l0.9-14.4c7.9-2.1,10.5-3.6,13.7-5.4c1.6-0.9,3.3-1.9,5.9-3.1    c0.5-0.3,1-0.6,1.4-1c0.2-0.1,0.3-0.2,0.5-0.3c0.4-0.3,0.8-0.5,1.2-0.8C135.9,99.7,136,99.6,136.1,99.6z"></path>
		<path class="st0" d="M141.9,93.9c-0.2,0.2-0.4,0.5-0.6,0.7c-0.1,0.1-0.3,0.3-0.4,0.4c-0.2,0.2-0.5,0.4-0.7,0.7    c-0.2,0.1-0.3,0.3-0.5,0.4c-0.2,0.2-0.5,0.4-0.7,0.6c-0.2,0.1-0.3,0.3-0.5,0.4c-0.2,0.2-0.4,0.4-0.7,0.5c-0.2,0.1-0.3,0.3-0.5,0.4    c-0.2,0.2-0.4,0.3-0.7,0.5c-0.2,0.1-0.4,0.3-0.5,0.4c-0.2,0.2-0.4,0.3-0.6,0.4c-0.2,0.1-0.4,0.3-0.6,0.4c-0.2,0.1-0.4,0.2-0.5,0.4    c-0.6,0.4-1.2,0.8-1.8,1.2c-2.6,1.2-4.4,2.2-5.9,3.1c-3.2,1.8-5.7,3.3-13.7,5.4l-0.1,0l-0.9,14.7c0,0.1,0,0.2-0.1,0.3    c0,0.2-0.1,0.5-0.2,0.7c0,0.1-0.1,0.2-0.1,0.3c-0.2,0.6-0.5,1.3-0.9,2.1c-0.1,0.2-0.2,0.4-0.3,0.6l0,0c-0.9,1.7-2.4,3.8-4.7,4.8    l-0.1,0.1h-0.3l0.3-8.2c1.4-2,2.1-3.8,2.3-5.7c0-0.4,0-1.1,0-2.1c0.1-3.5,0.2-10.1-0.5-14l0-0.2l0.1-0.1c0.7-0.9,2-1.3,3.3-1.7    c0.9-0.3,1.7-0.8,2.4-1.2c0.3-0.2,0.6-0.4,0.9-0.5c5.7-3,10.1-7,13.4-12.5c0.6,0.5,2.3,2,3.9,2.6l-2.1,0.5l0.7,0.3    c1.9,0.7,3.6,1,5.2,0.9l0.6,2.3l0.1,0.2l0.2,0c1.3-0.2,2.2-0.3,3.2-0.6c0.8-0.3,1.5-0.6,2.3-1.2l-0.5,1.7l0.2,0    C141.3,94,141.6,94,141.9,93.9z"></path>
		<path class="st0" d="M221.3,46.6c0,0.2,0,0.3,0,0.5c0,0.2-0.1,0.4-0.1,0.6c-0.7,0.3-1.9,0.5-3.6,0.2h0c-0.3-0.1-0.6-0.2-1-0.3    c-0.3-0.1-0.6-0.2-0.9-0.4c-0.2-2.1-2.2-2.8-6.1-1.6c-0.1,0-0.2,0-0.3,0.1c-2.3,0.8-4.3,2.4-5.7,4.4c-0.1,0.2-0.3,0.4-0.4,0.6    c-0.2,0.3-0.3,0.5-0.4,0.8c-0.7,1.5-1.2,3.1-1.2,4.7c0,3.9,1.3,6.2,1.9,7.3c-0.1,0.1-0.2,0.2-0.3,0.3c-5.3-1-8-5.1-8.6-7.2    c-0.1-0.5-1,5.6-1,5.6c-2.8-0.3-4.7-5.8-4.2-6.7c-0.6,0.5-1,1.7-1.5,2.8c0,0,0-0.1-0.1-0.1c-0.5-0.9-0.8-1.8-1-2.7    c0-0.1,0-0.1-0.1-0.2c-0.3-0.3-1.1-0.9-1.3-1.3c0-0.1,0-0.2,0.1-0.2c-0.3,0-0.7-0.1-1-0.1c0-0.1,0.1-0.1,0.1-0.2    c0.1-0.2,0.4-0.4,0.5-0.5l1.1-0.5l0.1,0c-0.1-1.1-0.2-2.3-0.1-3.5c0-3.5,2.5-6.2,4.7-8.7l0.5-0.5c-0.4,0.1-1.4,0.5-2.1,0.7    c0.9-1.2,1.7-2.5,2.9-3.4c1.7-1.2,3.8-1.8,5.8-2.3c-0.6-0.1-1.6-0.2-2.5-0.3c2.8-1.5,6.1-2.7,9.2-1.7l1.3,0.4    c-0.3-0.3-0.9-0.8-1.4-1.2c4.7,0.3,9.4,2,12.7,5.6c0-0.3,0.1-1.5,0.1-2.3C220.5,38.3,221.7,42.5,221.3,46.6z"></path>
		<path class="st0" d="M252.5,94.7c0,0.2,0,0.4-0.2,0.6c-0.1,0.1-0.3,0.2-0.5,0.2c0,0-0.1,0-0.1,0c-1.8-0.3-3.6-0.5-5.2-0.7    c-0.8-0.1-1.6,0.5-2.4,1c-0.3,0.2-0.7,0.4-1,0.6c-0.2,0.1-0.4,0.2-0.7,0.3c-0.2,0.1-0.5,0.1-0.7,0.1c-15.8,1-24.2-4.3-32-10.4    c-0.8-0.6-2.6-2.5-2.6-2.5l-0.1-0.1l-0.1,0c-0.6-0.7-2.4-2.9-2.7-7c0,0,1.7,2.5,1.7,2.5s-1-5.1-0.8-7.1c0,0,0,0,0-0.1    c0.4-3.8,2.5-6.1,4.6-8.1c0.7-0.7,1.5-1.2,2.3-1.6c0,0,0,0.1,0,0.1c0.2,1.7,6.8,9.5,15.5,13.7c7.9,3.7,10.8,4.6,13.2,4.9    c1.3,0.2,2.8-0.3,3.5-0.6c0.2-0.1,0.3-0.1,0.4-0.1c2.1-0.4,5,0.3,6.1,1.2c0.4,0.3,0.4,0.6,0.5,1.5c0,0.4-0.1,0.7-0.4,1    c-0.3,0.3-0.6,0.4-0.9,0.3c-1.1-0.1-2.6-0.2-3.6-0.1c-1.1,0.1-2,0.9-2.6,1.5c-0.3,0.3-0.7,0.6-1,0.7c-2.1,0.6-9.3,2.1-16.5-2    c-4.2-2.4-8.6-7.3-9.5-8.3l-0.4,0.3c0.5,0.7,3.7,4,4.2,4.4c3.8,3.6,13,9.4,19.5,10.7c0.9,0.2,1.8-0.1,2.5-0.4    c1.2-0.5,2.5-0.5,3.9-0.1l4,1.1C251.8,92.7,252.2,93.8,252.5,94.7z"></path>
		<g>
			<path class="st2" d="M125.8,183.5c0-5.8,4.4-10,10.4-10c3,0,5.7,1,7.5,3.1l-1.8,1.8c-1.5-1.6-3.4-2.3-5.5-2.3     c-4.4,0-7.7,3.2-7.7,7.5c0,4.3,3.3,7.5,7.7,7.5c2.2,0,4-0.8,5.5-2.4l1.8,1.8c-1.8,2-4.4,3.1-7.5,3.1     C130.2,193.6,125.8,189.3,125.8,183.5z"></path>
			<path class="st2" d="M145.3,185.9c0-4.4,3.3-7.6,7.7-7.6c4.5,0,7.7,3.1,7.7,7.6c0,4.4-3.3,7.6-7.7,7.6     C148.5,193.5,145.3,190.3,145.3,185.9z M158,185.9c0-3.2-2.1-5.2-5-5.2c-2.9,0-5,2-5,5.2c0,3.2,2.2,5.2,5,5.2     C155.8,191.1,158,189.1,158,185.9z"></path>
			<path class="st2" d="M164.4,172.5h2.7v20.8h-2.7V172.5z"></path>
			<path class="st2" d="M170.9,185.9c0-4.4,3.3-7.6,7.7-7.6c4.5,0,7.7,3.1,7.7,7.6c0,4.4-3.3,7.6-7.7,7.6     C174.2,193.5,170.9,190.3,170.9,185.9z M183.6,185.9c0-3.2-2.1-5.2-5-5.2s-5,2-5,5.2c0,3.2,2.2,5.2,5,5.2     S183.6,189.1,183.6,185.9z"></path>
			<path class="st2" d="M214.7,184.8v8.6H212v-8.2c0-2.9-1.4-4.3-3.8-4.3c-2.7,0-4.5,1.7-4.5,4.9v7.7H201v-8.2     c0-2.9-1.4-4.3-3.8-4.3c-2.7,0-4.5,1.7-4.5,4.9v7.7h-2.7v-14.9h2.6v2.2c1.1-1.5,2.9-2.4,5.1-2.4c2.3,0,4.2,0.9,5.2,2.7     c1.1-1.7,3.2-2.7,5.7-2.7C212.3,178.3,214.7,180.4,214.7,184.8z"></path>
			<path class="st2" d="M235.1,185.9c0,4.5-3.2,7.6-7.5,7.6c-2.2,0-4.1-0.8-5.3-2.5v2.4h-2.6v-20.8h2.7v8.2c1.2-1.6,3.1-2.4,5.2-2.4     C231.9,178.3,235.1,181.4,235.1,185.9z M232.4,185.9c0-3.2-2.2-5.2-5-5.2c-2.8,0-5,2-5,5.2c0,3.2,2.2,5.2,5,5.2     C230.2,191.1,232.4,189.1,232.4,185.9z"></path>
			<path class="st2" d="M238.3,173.9c0-1,0.8-1.8,1.8-1.8s1.8,0.8,1.8,1.7c0,1-0.8,1.8-1.8,1.8C239.1,175.6,238.3,174.9,238.3,173.9     z M238.8,178.5h2.7v14.9h-2.7V178.5z"></path>
			<path class="st2" d="M258.4,184.4v9h-2.6v-2c-0.9,1.3-2.6,2.1-4.9,2.1c-3.4,0-5.5-1.8-5.5-4.4c0-2.4,1.5-4.3,6-4.3h4.3v-0.5     c0-2.3-1.3-3.6-4-3.6c-1.8,0-3.6,0.6-4.7,1.6l-1.1-2c1.5-1.2,3.8-1.9,6.1-1.9C256.1,178.3,258.4,180.3,258.4,184.4z M255.7,188.8     v-2.1h-4.1c-2.7,0-3.4,1-3.4,2.3c0,1.5,1.2,2.4,3.3,2.4C253.4,191.4,255,190.5,255.7,188.8z"></path>
		</g>
		<g>
			<path class="st2" d="M121.2,115.3v6.6h9.5v2.3h-9.5v7.7h-2.7v-18.9h13.4v2.4H121.2z"></path>
			<path class="st2" d="M148.2,117.5v14.3h-2.5v-2.2c-1.1,1.5-2.8,2.3-4.9,2.3c-3.7,0-6.2-2-6.2-6.2v-8.2h2.6v7.9     c0,2.8,1.4,4.2,3.9,4.2c2.7,0,4.4-1.7,4.4-4.8v-7.4H148.2z"></path>
			<path class="st2" d="M166.7,123.6v8.2h-2.6v-7.9c0-2.8-1.4-4.2-3.9-4.2c-2.8,0-4.5,1.6-4.5,4.8v7.4h-2.6v-14.3h2.5v2.2     c1.1-1.5,2.9-2.3,5.2-2.3C164.3,117.4,166.7,119.4,166.7,123.6z"></path>
			<path class="st2" d="M185.2,111.8v20.1h-2.5v-2.3c-1.2,1.6-3,2.4-5.1,2.4c-4.2,0-7.2-2.9-7.2-7.3c0-4.4,3.1-7.3,7.2-7.3     c2,0,3.8,0.8,5,2.3v-7.9H185.2z M182.6,124.7c0-3.1-2.1-5-4.8-5c-2.8,0-4.8,2-4.8,5c0,3.1,2.1,5.1,4.8,5.1     C180.5,129.7,182.6,127.7,182.6,124.7z"></path>
			<path class="st2" d="M201.4,123.2v8.7H199V130c-0.9,1.3-2.5,2.1-4.7,2.1c-3.2,0-5.3-1.7-5.3-4.2c0-2.3,1.5-4.2,5.8-4.2h4.1v-0.5     c0-2.2-1.3-3.5-3.8-3.5c-1.7,0-3.4,0.6-4.5,1.5l-1.1-1.9c1.5-1.2,3.6-1.8,5.9-1.8C199.2,117.4,201.4,119.3,201.4,123.2z      M198.8,127.5v-2h-4c-2.6,0-3.3,1-3.3,2.2c0,1.4,1.2,2.3,3.2,2.3C196.7,130,198.2,129.1,198.8,127.5z"></path>
			<path class="st2" d="M205,124.7c0-4.3,3.2-7.3,7.6-7.3c2.6,0,4.7,1.1,5.8,3.1l-2,1.3c-0.9-1.4-2.3-2.1-3.9-2.1     c-2.8,0-4.9,2-4.9,5c0,3.1,2.1,5.1,4.9,5.1c1.6,0,3-0.6,3.9-2.1l2,1.2c-1.1,2-3.3,3.1-5.8,3.1C208.2,132,205,129,205,124.7z"></path>
			<path class="st2" d="M221.3,113.1c0-0.9,0.8-1.7,1.8-1.7s1.8,0.7,1.8,1.6c0,1-0.7,1.7-1.8,1.7C222.1,114.8,221.3,114,221.3,113.1     z M221.8,117.5h2.6v14.3h-2.6V117.5z"></path>
			<path class="st2" d="M228,124.7c0-4.3,3.2-7.3,7.5-7.3c4.3,0,7.4,3,7.4,7.3c0,4.3-3.1,7.3-7.4,7.3C231.2,132,228,129,228,124.7z      M240.3,124.7c0-3.1-2.1-5-4.8-5c-2.8,0-4.8,2-4.8,5c0,3.1,2.1,5.1,4.8,5.1C238.2,129.7,240.3,127.7,240.3,124.7z M237.1,111.9     h3.3l-4.5,3.5h-2.4L237.1,111.9z"></path>
			<path class="st2" d="M260.1,123.6v8.2h-2.6v-7.9c0-2.8-1.4-4.2-3.9-4.2c-2.8,0-4.5,1.6-4.5,4.8v7.4h-2.6v-14.3h2.5v2.2     c1.1-1.5,2.9-2.3,5.2-2.3C257.6,117.4,260.1,119.4,260.1,123.6z"></path>
		</g>
		<g>
			<path class="st3" d="M130.1,133.8V166h-6.1l-16.1-19.6V166h-7.4v-32.3h6.2l16,19.6v-19.6H130.1z"></path>
			<path class="st3" d="M159.1,151.9V166h-6.7v-3.1c-1.3,2.3-3.9,3.5-7.6,3.5c-5.8,0-9.3-3.2-9.3-7.5c0-4.4,3.1-7.4,10.6-7.4h5.7     c0-3.1-1.8-4.9-5.7-4.9c-2.6,0-5.3,0.9-7.1,2.3l-2.6-5c2.7-1.9,6.7-3,10.7-3C154.8,140.9,159.1,144.4,159.1,151.9z M151.9,158.2     v-2.5H147c-3.4,0-4.4,1.2-4.4,2.9c0,1.8,1.5,3,4.1,3C149,161.6,151.1,160.5,151.9,158.2z"></path>
			<path class="st3" d="M181.6,164.8c-1.5,1.1-3.6,1.6-5.9,1.6c-5.9,0-9.3-3-9.3-8.9v-10.2h-3.8v-5.5h3.8v-6h7.2v6h6.2v5.5h-6.2     v10.1c0,2.1,1.2,3.3,3.1,3.3c1.1,0,2.1-0.3,2.9-0.9L181.6,164.8z"></path>
			<path class="st3" d="M210.7,141.2V166h-6.8v-2.9c-1.9,2.2-4.7,3.3-7.7,3.3c-6.2,0-10.6-3.5-10.6-11.2v-14h7.2v13c0,4.1,1.8,6,5,6     c3.3,0,5.7-2.1,5.7-6.7v-12.3H210.7z"></path>
			<path class="st3" d="M232.7,140.9v6.6c-0.6,0-1.1-0.1-1.6-0.1c-4,0-6.6,2.2-6.6,6.9V166h-7.2v-24.8h6.9v3.3     C226,142.1,228.9,140.9,232.7,140.9z"></path>
			<path class="st3" d="M258.8,151.9V166h-6.7v-3.1c-1.3,2.3-3.9,3.5-7.6,3.5c-5.8,0-9.3-3.2-9.3-7.5c0-4.4,3.1-7.4,10.6-7.4h5.7     c0-3.1-1.8-4.9-5.7-4.9c-2.6,0-5.3,0.9-7.1,2.3l-2.6-5c2.7-1.9,6.7-3,10.7-3C254.4,140.9,258.8,144.4,258.8,151.9z M251.6,158.2     v-2.5h-4.9c-3.4,0-4.4,1.2-4.4,2.9c0,1.8,1.5,3,4.1,3C248.7,161.6,250.8,160.5,251.6,158.2z"></path>
		</g>
	</g>
</g>
</svg>
